<?xml version="1.0" encoding="UTF-8" standalone="no"?>
<svg
   version="1.1"
   id="Ebene_1"
   x="0"
   y="0"
   viewBox="0 0 296.8 33.7"
   xml:space="preserve"
   sodipodi:docname="T4AT_Logo.svg"
   inkscape:version="1.1.1 (3bf5ae0d25, 2021-09-20)"
   xmlns:inkscape="http://www.inkscape.org/namespaces/inkscape"
   xmlns:sodipodi="http://sodipodi.sourceforge.net/DTD/sodipodi-0.dtd"
   xmlns="http://www.w3.org/2000/svg"
   xmlns:svg="http://www.w3.org/2000/svg"><defs
     id="defs19" /><sodipodi:namedview
     id="namedview17"
     pagecolor="#ffffff"
     bordercolor="#666666"
     borderopacity="1.0"
     inkscape:pageshadow="2"
     inkscape:pageopacity="0.0"
     inkscape:pagecheckerboard="0"
     showgrid="false"
     inkscape:zoom="3.5646902"
     inkscape:cx="148.25973"
     inkscape:cy="16.972022"
     inkscape:window-width="3840"
     inkscape:window-height="1529"
     inkscape:window-x="-8"
     inkscape:window-y="40"
     inkscape:window-maximized="1"
     inkscape:current-layer="Ebene_1" /><style
     id="style2">.st0{opacity:.9}.st1{fill:#fff}.st2{fill:#c8d400}</style><g
     class="st0"
     id="g6"
     style="fill:#333333"><path
       class="st1"
       d="M139.7 24.8c.2.5.2.8.3 1.1 0 .3 0 .5-.2.6-.1.1-.4.2-.7.2h-3c-.4 0-.6-.1-.8-.1-.2-.1-.3-.1-.4-.2-.1-.1-.1-.2-.2-.4l-1.7-5h-9.3l-1.6 4.9c-.1.2-.1.3-.2.5-.1.1-.2.2-.4.3-.2.1-.4.1-.8.1h-1.3c-.6 0-1 0-1.4-.1-.3 0-.6-.1-.7-.3-.1-.1-.2-.4-.1-.6 0-.3.1-.6.3-1.1l7.7-22c.1-.2.2-.4.3-.5.1-.1.3-.2.5-.3.2-.1.5-.1.9-.1H130.3c.4 0 .8.1 1 .1.2.1.4.2.5.3.1.1.2.3.3.6l7.6 22zM128.3 6.6l-3.5 10.6h7l-3.5-10.6zM158.3 10.1c0 .6-.1 1.1-.2 1.4-.1.3-.3.4-.5.4h-2c.3.3.5.7.6 1 .1.4.2.8.2 1.2 0 1-.2 1.9-.5 2.7-.3.8-.8 1.4-1.4 2-.6.5-1.4.9-2.2 1.2-.9.3-1.9.4-2.9.4-.6 0-1.1-.1-1.6-.2s-.9-.3-1.2-.5c-.2.2-.3.4-.4.6-.1.2-.2.5-.2.8 0 .4.2.7.5.9.3.2.8.4 1.4.4l4.2.2c1 0 1.8.2 2.6.4s1.4.6 1.9 1 .9.9 1.2 1.5c.3.6.4 1.3.4 2.1s-.2 1.6-.6 2.4c-.4.7-.9 1.4-1.7 1.9-.7.6-1.7 1-2.8 1.3-1.1.3-2.4.5-3.9.5s-2.7-.1-3.7-.3c-1-.2-1.9-.5-2.5-1-.7-.4-1.1-.9-1.4-1.5-.3-.6-.5-1.2-.5-1.9 0-.4.1-.8.2-1.2.1-.4.3-.8.5-1.1.2-.4.5-.7.8-1 .3-.3.7-.6 1.1-.9-.6-.3-1-.7-1.3-1.2-.3-.5-.5-1.1-.5-1.7 0-.8.2-1.4.5-2.1.3-.6.8-1.2 1.3-1.7-.4-.4-.8-1-1.1-1.6-.3-.6-.4-1.4-.4-2.3 0-1 .2-1.9.5-2.7.4-.8.8-1.5 1.5-2 .6-.5 1.4-1 2.2-1.2.9-.3 1.8-.4 2.9-.4.5 0 1.1 0 1.5.1.5.1.9.2 1.4.3h5.4c.2 0 .4.1.5.4.2.3.2.8.2 1.4zm-5 17.8c0-.6-.2-1-.7-1.3-.5-.3-1.1-.5-1.9-.5l-3.4-.1c-.3.2-.6.5-.8.7-.2.2-.4.4-.5.6-.1.2-.2.4-.2.6 0 .2-.1.4-.1.6 0 .6.3 1.1 1 1.5.6.3 1.6.5 2.7.5.7 0 1.3-.1 1.8-.2s.9-.3 1.2-.6c.3-.2.5-.5.7-.8.1-.4.2-.7.2-1zm-1.2-13.7c0-.9-.3-1.6-.8-2.2-.5-.5-1.2-.8-2.2-.8-.5 0-.9.1-1.2.2-.4.2-.7.4-.9.7-.2.3-.4.6-.5 1-.1.4-.2.7-.2 1.1 0 .9.3 1.6.8 2.1s1.2.8 2.1.8c.5 0 .9-.1 1.3-.2.4-.2.7-.4.9-.6.2-.3.4-.6.5-.9.2-.5.2-.8.2-1.2zM166.7 3.1c0 1-.2 1.6-.6 2-.4.4-1.1.6-2.2.6s-1.8-.2-2.2-.5c-.4-.4-.6-1-.6-1.9 0-1 .2-1.6.6-2 .4-.4 1.1-.6 2.2-.6s1.8.2 2.2.5c.4.4.6 1 .6 1.9zm-.3 23c0 .1 0 .2-.1.3-.1.1-.2.2-.4.2-.2.1-.4.1-.7.1h-2.4c-.3 0-.6-.1-.7-.1-.2-.1-.3-.1-.4-.2-.1-.1-.1-.2-.1-.3V9c0-.1 0-.2.1-.3.1-.1.2-.2.4-.2.2-.1.4-.1.7-.2.3 0 .7-.1 1.2-.1s.9 0 1.2.1c.3 0 .6.1.7.2.2.1.3.2.4.2.1.1.1.2.1.3v17.1zM176 26.1c0 .1 0 .2-.1.3-.1.1-.2.2-.4.2-.2.1-.4.1-.7.1h-2.4c-.3 0-.6-.1-.7-.1-.2-.1-.3-.1-.4-.2-.1-.1-.1-.2-.1-.3V.9c0-.1 0-.2.1-.3.1-.1.2-.2.4-.3.2-.1.4-.1.7-.2.3 0 .7-.1 1.2-.1s.9 0 1.2.1c.3 0 .6.1.7.2.2.1.3.2.4.3.1.1.1.2.1.3v25.2zM196.7 17c0 .6-.1 1-.4 1.3-.3.3-.6.4-1.1.4h-10.4c0 .7.1 1.4.3 2 .2.6.4 1.1.8 1.5.4.4.9.7 1.5 1 .6.2 1.3.3 2.1.3s1.6-.1 2.2-.2c.6-.1 1.2-.3 1.7-.4.5-.1.9-.3 1.2-.4.3-.1.6-.2.7-.2.1 0 .2 0 .3.1.1 0 .1.1.2.2s.1.3.1.5v1.5c0 .2 0 .4-.1.5 0 .1-.1.3-.1.4-.1.1-.1.2-.2.3-.1.1-.3.2-.7.4-.4.2-.8.3-1.4.5-.6.1-1.2.3-2 .4-.7.1-1.5.2-2.4.2-1.5 0-2.9-.2-4-.6-1.1-.4-2.1-1-2.9-1.7-.8-.8-1.3-1.8-1.7-3-.4-1.2-.6-2.6-.6-4.2 0-1.5.2-2.9.6-4.1.4-1.2 1-2.3 1.7-3.1.8-.9 1.7-1.5 2.8-2 1.1-.4 2.3-.7 3.7-.7 1.4 0 2.7.2 3.7.6 1 .4 1.9 1 2.5 1.8.7.7 1.1 1.6 1.4 2.7.3 1 .5 2.1.5 3.3v.7zm-4.7-1.4c0-1.4-.2-2.4-.8-3.2-.6-.8-1.5-1.2-2.7-1.2-.6 0-1.1.1-1.6.3-.5.2-.8.5-1.1.9-.3.4-.5.9-.7 1.4-.2.5-.3 1.1-.3 1.7l7.2.1zM214.3 3.9v1c0 .3-.1.5-.1.6-.1.2-.1.3-.2.4-.2.1-.3.1-.4.1h-6.2v20c0 .1 0 .2-.1.3-.1.1-.2.2-.4.2-.2.1-.5.1-.8.2-.3 0-.7.1-1.2.1s-.9 0-1.2-.1c-.3 0-.6-.1-.8-.2-.2-.1-.3-.1-.4-.2-.1-.1-.1-.2-.1-.3V6h-6.2c-.1 0-.2 0-.3-.1-.1-.1-.2-.2-.2-.4-.1-.2-.1-.4-.1-.6V4 3c0-.3.1-.5.1-.6.1-.2.1-.3.2-.3.1-.1.2-.1.3-.1h17.5c.1 0 .2 0 .3.1.1.1.2.2.2.3.1.2.1.4.1.6v.9zM229.4 17c0 .6-.1 1-.4 1.3-.3.3-.6.4-1.1.4h-10.4c0 .7.1 1.4.3 2 .2.6.4 1.1.8 1.5.4.4.9.7 1.5 1 .6.2 1.3.3 2.1.3s1.6-.1 2.2-.2c.6-.1 1.2-.3 1.7-.4.5-.1.9-.3 1.2-.4.3-.1.6-.2.7-.2.1 0 .2 0 .3.1.1 0 .1.1.2.2s.1.3.1.5v1.5c0 .2 0 .4-.1.5 0 .1-.1.3-.1.4-.1.1-.1.2-.2.3-.1.1-.3.2-.7.4-.4.2-.8.3-1.4.5-.6.1-1.2.3-2 .4-.7.1-1.5.2-2.4.2-1.5 0-2.9-.2-4-.6-1.1-.4-2.1-1-2.9-1.7-.8-.8-1.3-1.8-1.7-3-.4-1.2-.6-2.6-.6-4.2 0-1.5.2-2.9.6-4.1.4-1.2 1-2.3 1.7-3.1.8-.9 1.7-1.5 2.8-2 1.1-.4 2.3-.7 3.7-.7 1.4 0 2.7.2 3.7.6 1 .4 1.9 1 2.5 1.8.7.7 1.1 1.6 1.4 2.7.3 1 .5 2.1.5 3.3v.7zm-4.7-1.4c0-1.4-.2-2.4-.8-3.2-.6-.8-1.5-1.2-2.7-1.2-.6 0-1.1.1-1.6.3-.5.2-.8.5-1.1.9-.3.4-.5.9-.7 1.4-.2.5-.3 1.1-.3 1.7l7.2.1zM248 26.1c0 .2-.1.3-.2.4-.1.1-.3.2-.6.2s-.7.1-1.2.1c-.6 0-1 0-1.3-.1-.3 0-.4-.1-.6-.2-.1-.1-.2-.2-.2-.4v-1.4c-.7.8-1.5 1.3-2.4 1.8-.9.4-1.9.6-3 .6-.9 0-1.7-.1-2.5-.4-.8-.2-1.4-.6-2-1.1-.6-.5-1-1-1.3-1.7-.3-.7-.5-1.5-.5-2.4 0-1 .2-1.9.6-2.6.4-.7 1-1.3 1.7-1.8.8-.5 1.7-.8 2.9-1.1 1.2-.2 2.5-.3 4-.3h1.7v-1c0-.5-.1-1-.2-1.4-.1-.4-.3-.7-.5-1-.2-.3-.6-.5-1-.6-.4-.1-.9-.2-1.5-.2-.8 0-1.5.1-2.2.3-.6.2-1.2.4-1.7.6-.5.2-.9.4-1.2.6-.3.2-.6.3-.8.3-.1 0-.3 0-.4-.1-.1-.1-.2-.2-.3-.4-.1-.2-.1-.4-.2-.6 0-.2-.1-.5-.1-.8 0-.4 0-.7.1-.9.1-.2.2-.4.4-.6.2-.2.5-.4.9-.6.4-.2 1-.4 1.6-.6.6-.2 1.3-.4 2-.5.7-.1 1.4-.2 2.2-.2 1.3 0 2.5.1 3.4.4 1 .3 1.7.7 2.4 1.2.6.5 1.1 1.2 1.3 2.1.3.9.4 1.9.4 3.1l.3 11.3zm-4.8-7.3h-1.8c-.8 0-1.4.1-2 .2-.6.1-1 .3-1.3.5-.3.2-.6.5-.8.8-.2.3-.2.7-.2 1.1 0 .7.2 1.3.7 1.7.5.4 1.1.6 1.9.6.7 0 1.3-.2 1.9-.5.6-.3 1.1-.9 1.7-1.5v-2.9zM280 26.1c0 .1 0 .2-.1.3-.1.1-.2.2-.4.2-.2.1-.4.1-.7.1h-2.4c-.3 0-.6-.1-.7-.1-.2-.1-.3-.1-.4-.2-.1-.1-.1-.2-.1-.3V15.9c0-.6-.1-1.1-.2-1.6s-.3-.9-.5-1.2c-.2-.3-.5-.6-.8-.8-.3-.2-.7-.3-1.2-.3-.6 0-1.2.2-1.7.7-.6.4-1.2 1.1-1.9 2v11.4c0 .1 0 .2-.1.3-.1.1-.2.2-.4.2-.2.1-.4.1-.7.1h-2.4c-.3 0-.6-.1-.7-.1-.2-.1-.3-.1-.4-.2-.1-.1-.1-.2-.1-.3V15.9c0-.6-.1-1.1-.2-1.6s-.3-.9-.5-1.2c-.2-.3-.5-.6-.8-.8-.3-.2-.7-.3-1.2-.3-.6 0-1.2.2-1.8.7-.6.4-1.2 1.1-1.9 2v11.4c0 .1 0 .2-.1.3-.1.1-.2.2-.4.2-.2.1-.4.1-.7.1h-2.4c-.3 0-.6-.1-.7-.1-.2-.1-.3-.1-.4-.2-.1-.1-.1-.2-.1-.3V9c0-.1 0-.2.1-.3.1-.1.2-.2.3-.2.2-.1.4-.1.6-.1h2c.3 0 .5.1.6.1.1.1.3.1.3.2.1.1.1.2.1.3v2c.9-1 1.9-1.8 2.8-2.3.9-.5 1.9-.8 2.9-.8.7 0 1.3.1 1.9.2.6.1 1.1.4 1.5.6.4.3.8.6 1.1 1 .3.4.6.8.8 1.3.5-.5 1-1 1.5-1.4.5-.4 1-.7 1.5-1 .5-.2 1-.4 1.4-.6.5-.1 1-.2 1.5-.2 1.1 0 2.1.2 2.9.6.8.4 1.4.9 1.9 1.6.5.7.8 1.4 1 2.3.2.9.3 1.8.3 2.8l.1 11zM296.8 21.2c0 1-.2 1.8-.5 2.6-.4.7-.9 1.4-1.5 1.9-.7.5-1.5.9-2.4 1.1-.9.2-1.9.4-3 .4-.6 0-1.3 0-1.8-.1-.6-.1-1.1-.2-1.6-.4-.5-.1-.8-.3-1.2-.5-.3-.2-.5-.3-.7-.4-.1-.1-.2-.3-.3-.6-.1-.3-.1-.7-.1-1.3V23c0-.2.1-.4.1-.5.1-.1.1-.2.2-.3.1 0 .2-.1.3-.1.1 0 .3.1.6.2.3.2.6.3 1 .5s.9.4 1.4.5c.5.2 1.2.2 1.9.2.4 0 .8 0 1.2-.1.3-.1.6-.2.9-.4l.6-.6c.1-.3.2-.6.2-.9 0-.4-.1-.7-.4-1-.2-.3-.6-.5-.9-.7-.4-.2-.8-.4-1.3-.6l-1.5-.6c-.5-.2-1-.5-1.5-.8-.5-.3-.9-.6-1.3-1s-.7-.9-.9-1.5c-.2-.6-.4-1.3-.4-2.1s.2-1.6.5-2.3c.3-.7.8-1.3 1.4-1.8.6-.5 1.3-.9 2.2-1.1.9-.3 1.8-.4 2.9-.4.5 0 1.1 0 1.6.1s1 .2 1.4.3c.4.1.8.2 1 .4.3.1.5.3.6.3l.3.3c0 .1.1.2.1.3 0 .1 0 .3.1.5v1.5c0 .2-.1.4-.1.5 0 .1-.1.2-.2.3-.1 0-.2.1-.3.1-.1 0-.3-.1-.5-.2s-.5-.3-.9-.4c-.4-.2-.8-.3-1.3-.4-.5-.1-1-.2-1.6-.2-.4 0-.8 0-1.1.1-.3.1-.6.2-.8.4-.2.2-.4.4-.5.6-.1.2-.2.5-.2.7 0 .4.1.7.4 1 .2.3.6.5 1 .7.4.2.8.4 1.4.6l1.5.6c.5.2 1 .5 1.5.7.5.3 1 .6 1.4 1 .4.4.7.9 1 1.5 0 .9.1 1.5.1 2.3z"
       id="path4"
       style="fill:#333333" /></g><g
     class="st0"
     id="g10"
     style="fill:#333333"><path
       class="st1"
       d="M19 4.4v1c0 .3-.1.5-.1.6-.1.2-.1.3-.2.4-.1.1-.2.1-.3.1H12v20c0 .1 0 .2-.1.3-.1.1-.2.2-.4.2-.2.1-.5.1-.8.2-.3 0-.7.1-1.2.1s-.9 0-1.2-.1c-.3 0-.6-.1-.8-.2-.2-.1-.3-.1-.4-.2-.1-.1-.1-.2-.1-.3v-20H.7c-.1 0-.2 0-.3-.1C.3 6.3.3 6.1.2 6c-.1-.2-.1-.4-.2-.6v-1-1c0-.3.1-.5.1-.6.1-.2.1-.3.2-.3.1-.1.2-.1.3-.1h17.5c.1 0 .2 0 .3.1.1.1.2.2.2.3.1.2.1.4.1.6.3.3.3.6.3 1zM35.6 17.8c0 1.5-.2 2.8-.6 4s-1 2.2-1.7 3.1c-.8.9-1.8 1.5-2.9 2-1.2.5-2.6.7-4.1.7-1.5 0-2.8-.2-4-.6-1.1-.4-2.1-1-2.8-1.8-.7-.8-1.3-1.8-1.7-3-.4-1.2-.5-2.5-.5-4s.2-2.8.6-4c.4-1.2 1-2.2 1.8-3.1.8-.9 1.8-1.5 2.9-2 1.2-.5 2.5-.7 4.1-.7 1.5 0 2.9.2 4 .6 1.1.4 2.1 1 2.8 1.8.7.8 1.3 1.8 1.6 3 .3 1.1.5 2.5.5 4zm-5 .2c0-.8-.1-1.6-.2-2.3-.1-.7-.4-1.3-.7-1.9-.3-.5-.7-.9-1.3-1.2-.5-.3-1.2-.4-2-.4-.7 0-1.3.1-1.9.4-.5.3-1 .6-1.3 1.2-.3.5-.6 1.1-.8 1.8-.2.7-.3 1.5-.3 2.4 0 .8.1 1.6.2 2.3.1.7.4 1.3.7 1.9.3.5.7.9 1.3 1.2.5.3 1.2.4 2 .4.7 0 1.4-.1 1.9-.4.5-.3 1-.6 1.3-1.1.3-.5.6-1.1.8-1.8.2-.8.3-1.6.3-2.5zM56.7 17.8c0 1.5-.2 2.8-.6 4-.4 1.2-1 2.2-1.7 3.1-.8.9-1.8 1.5-2.9 2-1.2.5-2.6.7-4.1.7-1.5 0-2.8-.2-4-.6-1.1-.4-2.1-1-2.8-1.8-.7-.8-1.3-1.8-1.6-3-.4-1.2-.5-2.5-.5-4s.2-2.8.6-4c.4-1.2 1-2.2 1.8-3.1.8-.9 1.8-1.5 2.9-2 1.2-.5 2.5-.7 4.1-.7 1.5 0 2.9.2 4 .6 1.1.4 2.1 1 2.8 1.8.7.8 1.3 1.8 1.6 3 .2 1.1.4 2.5.4 4zm-5 .2c0-.8-.1-1.6-.2-2.3-.1-.7-.4-1.3-.7-1.9-.3-.5-.7-.9-1.3-1.2-.5-.3-1.2-.4-2-.4-.7 0-1.3.1-1.9.4-.5.3-1 .6-1.3 1.2-.3.5-.6 1.1-.8 1.8-.2.7-.3 1.5-.3 2.4 0 .8.1 1.6.2 2.3.1.7.4 1.3.7 1.9.3.5.7.9 1.3 1.2.5.3 1.2.4 2 .4.7 0 1.4-.1 1.9-.4.5-.3 1-.6 1.3-1.1.3-.5.6-1.1.8-1.8.3-.8.3-1.6.3-2.5zM65.4 26.5c0 .1 0 .2-.1.3-.1.1-.2.2-.4.2-.2.1-.4.1-.7.1h-2.4c-.3 0-.6-.1-.7-.1-.2-.1-.3-.1-.4-.2-.1-.1-.1-.2-.1-.3V1.3c0-.1 0-.2.1-.3.1-.1.2-.2.4-.3.2-.1.4-.1.7-.2.3 0 .7-.1 1.2-.1s.9 0 1.2.1c.3 0 .6.1.7.2.2.1.3.2.4.3.1.1.1.2.1.3v25.2zM82.3 21.7c0 1-.2 1.8-.5 2.6-.4.7-.9 1.4-1.5 1.9-.7.5-1.5.9-2.4 1.1-.9.2-1.9.4-3 .4-.6 0-1.3 0-1.8-.1-.6-.1-1.1-.2-1.6-.4-.5-.1-.8-.3-1.2-.5-.3-.2-.5-.3-.7-.4-.1-.1-.2-.3-.3-.6-.1-.3-.1-.7-.1-1.3v-.9c0-.2.1-.4.1-.5.1-.1.1-.2.2-.3.1 0 .2-.1.3-.1.1 0 .3.1.6.2.3.2.6.3 1 .5s.9.4 1.4.5c.5.2 1.2.2 1.9.2.4 0 .8 0 1.2-.1.3-.1.6-.2.9-.4l.6-.6c.1-.3.2-.5.2-.9s-.1-.7-.4-1c-.2-.3-.6-.5-.9-.7-.4-.2-.8-.4-1.3-.6l-1.5-.6c-.5-.2-1-.5-1.5-.7-.5-.3-.9-.6-1.3-1s-.7-.9-.9-1.5-.4-1.3-.4-2.1.2-1.6.5-2.3c.3-.7.8-1.3 1.4-1.8.6-.5 1.3-.9 2.2-1.1.9-.3 1.8-.4 2.9-.4.5 0 1.1 0 1.6.1s1 .2 1.4.3c.4.1.8.2 1 .4.3.1.5.2.6.3l.3.3c.1.1.1.2.1.3 0 .1 0 .3.1.5v1.5c0 .2-.1.4-.1.5 0 .1-.1.2-.2.3-.1 0-.2.1-.3.1-.1 0-.3-.1-.5-.2s-.5-.3-.9-.4c-.4-.2-.8-.3-1.3-.4-.5-.1-1-.2-1.6-.2-.4 0-.8 0-1.1.1-.3.1-.6.2-.8.4-.2.2-.4.4-.5.6-.1.2-.2.5-.2.7 0 .4.1.7.4 1 .2.3.6.5 1 .7.4.2.8.4 1.4.6l1.5.6c.5.2 1 .5 1.5.7.5.3 1 .6 1.4 1 .4.4.7.9 1 1.5-.1.7.1 1.4.1 2.2z"
       id="path8"
       style="fill:#333333" /></g><path
     class="st2"
     d="M113.9.2v.1l-7.7 17.4 2.6 1.1c.2.1.4.4.4.8s-.2 1.1-.5 1.9c-.3.8-.7 1.3-1 1.6-.3.3-.6.4-.9.3l-2.6-1.1-1.7 3.9H114V.2zM100.6 15.2l5.9-13.3h-.1l-13.5 9.9z"
     id="path12" /><path
     class="st2"
     d="M96.5 26c-.2-.2-.3-.3-.3-.5v-.4l2.3-5.2-11-4.9c-.2-.1-.4-.2-.5-.3-.1-.1-.2-.3-.3-.5 0-.2 0-.5.1-.9s.3-.8.5-1.4c.2-.5.4-.9.6-1.2.2-.3.4-.6.5-.9.2-.4.4-.6.6-.8.2-.2.4-.4.7-.6L100.9 0H85.7v26.2h11.2c-.2 0-.3-.1-.4-.2z"
     id="path14" /></svg>
